<?xml version="1.0" standalone="no"?>
<!DOCTYPE svg PUBLIC "-//W3C//DTD SVG 20010904//EN"
 "http://www.w3.org/TR/2001/REC-SVG-20010904/DTD/svg10.dtd">
<svg version="1.0" xmlns="http://www.w3.org/2000/svg"
 width="135.000000pt" height="129.000000pt" viewBox="0 0 135.000000 129.000000"
 preserveAspectRatio="xMidYMid meet">
<metadata>
Created by potrace 1.16, written by Peter Selinger 2001-2019
</metadata>
<g transform="translate(0.000000,129.000000) scale(0.100000,-0.100000)"
fill="#000000" stroke="none">
<path d="M580 1240 c-244 -51 -439 -253 -481 -498 -38 -214 53 -448 223 -580
296 -228 710 -151 903 167 62 103 79 170 79 311 0 105 -4 136 -23 190 -64 182
-205 324 -385 387 -80 28 -236 39 -316 23z m240 -101 c127 -29 271 -139 332
-255 82 -154 77 -366 -13 -509 -36 -58 -108 -135 -125 -135 -17 0 -117 51
-126 64 -22 32 5 98 82 198 37 48 44 84 27 131 -9 23 -17 85 -19 137 -5 102
-24 158 -59 167 -13 4 -24 23 -35 64 l-17 59 -71 0 c-85 0 -189 -21 -242 -48
-92 -47 -133 -126 -134 -253 0 -55 -6 -100 -16 -124 -18 -44 -12 -81 22 -127
84 -114 108 -171 86 -204 -9 -15 -107 -64 -126 -64 -24 0 -114 107 -145 173
-39 81 -51 135 -51 227 0 93 12 146 52 230 58 122 202 238 334 269 54 12 190
13 244 0z m-155 -306 c55 -3 117 -1 137 5 30 8 39 7 52 -7 24 -26 43 -81 51
-144 4 -31 11 -60 16 -63 16 -9 10 -62 -9 -76 -9 -7 -26 -32 -36 -56 -11 -24
-46 -68 -78 -98 -50 -46 -65 -54 -98 -54 -32 0 -47 8 -93 49 -29 28 -65 72
-78 98 -13 26 -32 54 -41 61 -18 13 -25 67 -9 76 4 3 11 37 15 76 8 90 32 154
55 144 9 -3 61 -9 116 -11z m-33 -553 c42 -26 94 -25 137 1 18 11 36 17 39 14
3 -3 8 -31 10 -63 l4 -58 -40 -12 c-49 -15 -100 -15 -158 -1 -41 11 -44 14
-44 44 0 35 10 95 16 95 2 0 18 -9 36 -20z"/>
</g>
</svg>
