<?xml version="1.0" standalone="no"?>
<!DOCTYPE svg PUBLIC "-//W3C//DTD SVG 20010904//EN"
 "http://www.w3.org/TR/2001/REC-SVG-20010904/DTD/svg10.dtd">
<svg version="1.0" xmlns="http://www.w3.org/2000/svg"
 width="136.000000pt" height="137.000000pt" viewBox="0 0 136.000000 137.000000"
 preserveAspectRatio="xMidYMid meet">
<metadata>
Created by potrace 1.16, written by Peter Selinger 2001-2019
</metadata>
<g transform="translate(0.000000,137.000000) scale(0.100000,-0.100000)"
fill="#000000" stroke="none">
<path d="M570 1260 c-244 -51 -439 -253 -481 -498 -38 -214 53 -448 223 -580
296 -228 710 -151 903 167 62 103 79 170 79 311 0 105 -4 136 -23 190 -64 182
-205 324 -385 387 -80 28 -236 39 -316 23z m240 -101 c86 -20 172 -69 240
-138 107 -108 150 -214 150 -367 0 -139 -56 -271 -158 -368 l-40 -39 -76 28
c-73 27 -76 29 -76 60 0 28 7 37 49 65 54 34 105 86 147 149 l27 41 -17 88
c-45 248 -165 388 -341 400 -94 6 -143 -9 -203 -63 -47 -42 -118 -158 -137
-225 -4 -14 -25 -62 -47 -107 l-40 -83 25 -43 c30 -51 117 -135 175 -168 35
-20 42 -29 42 -55 0 -31 -3 -33 -77 -60 l-76 -28 -58 62 c-60 63 -110 155
-128 232 -13 58 -13 182 0 240 40 175 202 338 375 379 54 12 190 13 244 0z
m-60 -311 c0 -9 4 -19 9 -23 11 -6 61 15 61 27 0 4 4 8 9 8 12 0 27 -47 45
-140 8 -41 18 -87 21 -102 6 -21 2 -31 -18 -48 -14 -12 -28 -34 -32 -49 -17
-68 -124 -168 -168 -157 -35 9 -107 84 -133 139 -12 27 -32 58 -44 69 -16 15
-20 27 -15 47 4 14 9 43 12 63 5 34 11 41 66 70 34 18 86 56 117 84 54 51 69
54 70 12z m-15 -550 l45 22 0 -69 c0 -63 -2 -69 -22 -75 -30 -8 -88 -8 -127 0
l-31 7 0 68 0 69 45 -22 45 -22 45 22z"/>
</g>
</svg>
